<?xml version="1.0" encoding="UTF-8" standalone="no"?>
<!DOCTYPE svg PUBLIC "-//W3C//DTD SVG 1.1//EN"
 "http://www.w3.org/Graphics/SVG/1.1/DTD/svg11.dtd">
<!-- Generated by graphviz version 2.40.1 (20161225.0304)
 -->
<!-- Title: %3 Pages: 1 -->
<svg width="222pt" height="260pt"
 viewBox="0.00 0.00 221.89 260.00" xmlns="http://www.w3.org/2000/svg" xmlns:xlink="http://www.w3.org/1999/xlink">
<g id="graph0" class="graph" transform="scale(1 1) rotate(0) translate(4 256)">
<title>%3</title>
<polygon fill="#ffffff" stroke="transparent" points="-4,4 -4,-256 217.8927,-256 217.8927,4 -4,4"/>
<!-- _0x7fffe65d4fe0_ -->
<g id="node1" class="node">
<title>_0x7fffe65d4fe0_</title>
<ellipse fill="none" stroke="#000000" cx="113.3968" cy="-234" rx="63.0888" ry="18"/>
<text text-anchor="middle" x="113.3968" y="-230.3" font-family="Times,serif" font-size="14.00" fill="#000000">x3 [01100100]</text>
</g>
<!-- _0x7fffe65d5040_ -->
<g id="node2" class="node">
<title>_0x7fffe65d5040_</title>
<ellipse fill="none" stroke="#000000" cx="59.3968" cy="-162" rx="45.4919" ry="18"/>
<text text-anchor="middle" x="59.3968" y="-158.3" font-family="Times,serif" font-size="14.00" fill="#000000">x2 [0110]</text>
</g>
<!-- _0x7fffe65d4fe0_&#45;&gt;_0x7fffe65d5040_ -->
<g id="edge1" class="edge">
<title>_0x7fffe65d4fe0_&#45;&gt;_0x7fffe65d5040_</title>
<path fill="none" stroke="#000000" stroke-dasharray="5,2" d="M100.0485,-216.2022C93.5263,-207.506 85.5618,-196.8867 78.4166,-187.3598"/>
<polygon fill="#000000" stroke="#000000" points="81.2053,-185.2446 72.4052,-179.3446 75.6052,-189.4446 81.2053,-185.2446"/>
</g>
<!-- _0x7fffe65d52e0_ -->
<g id="node7" class="node">
<title>_0x7fffe65d52e0_</title>
<ellipse fill="none" stroke="#000000" cx="168.3968" cy="-162" rx="45.4919" ry="18"/>
<text text-anchor="middle" x="168.3968" y="-158.3" font-family="Times,serif" font-size="14.00" fill="#000000">x2 [0100]</text>
</g>
<!-- _0x7fffe65d4fe0_&#45;&gt;_0x7fffe65d52e0_ -->
<g id="edge2" class="edge">
<title>_0x7fffe65d4fe0_&#45;&gt;_0x7fffe65d52e0_</title>
<path fill="none" stroke="#000000" d="M126.9923,-216.2022C133.6352,-207.506 141.7472,-196.8867 149.0247,-187.3598"/>
<polygon fill="#000000" stroke="#000000" points="151.8583,-189.416 155.1474,-179.3446 146.2956,-185.1667 151.8583,-189.416"/>
</g>
<!-- _0x7fffe65d50a0_ -->
<g id="node3" class="node">
<title>_0x7fffe65d50a0_</title>
<ellipse fill="none" stroke="#000000" cx="127.3968" cy="-90" rx="36.2938" ry="18"/>
<text text-anchor="middle" x="127.3968" y="-86.3" font-family="Times,serif" font-size="14.00" fill="#000000">x1 [01]</text>
</g>
<!-- _0x7fffe65d5040_&#45;&gt;_0x7fffe65d50a0_ -->
<g id="edge3" class="edge">
<title>_0x7fffe65d5040_&#45;&gt;_0x7fffe65d50a0_</title>
<path fill="none" stroke="#000000" stroke-dasharray="5,2" d="M75.5118,-144.937C84.2749,-135.6584 95.2539,-124.0336 104.8533,-113.8696"/>
<polygon fill="#000000" stroke="#000000" points="107.5438,-116.1183 111.8655,-106.4449 102.4546,-111.3119 107.5438,-116.1183"/>
</g>
<!-- _0x7fffe65d51c0_ -->
<g id="node6" class="node">
<title>_0x7fffe65d51c0_</title>
<ellipse fill="none" stroke="#000000" cx="36.3968" cy="-90" rx="36.2938" ry="18"/>
<text text-anchor="middle" x="36.3968" y="-86.3" font-family="Times,serif" font-size="14.00" fill="#000000">x1 [10]</text>
</g>
<!-- _0x7fffe65d5040_&#45;&gt;_0x7fffe65d51c0_ -->
<g id="edge4" class="edge">
<title>_0x7fffe65d5040_&#45;&gt;_0x7fffe65d51c0_</title>
<path fill="none" stroke="#000000" d="M53.5929,-143.8314C51.0403,-135.8406 47.9868,-126.2819 45.166,-117.4514"/>
<polygon fill="#000000" stroke="#000000" points="48.4962,-116.3741 42.1191,-107.9134 41.8281,-118.5043 48.4962,-116.3741"/>
</g>
<!-- _0x7fffe65d5100_ -->
<g id="node4" class="node">
<title>_0x7fffe65d5100_</title>
<ellipse fill="none" stroke="#000000" cx="127.3968" cy="-18" rx="32.4942" ry="18"/>
<text text-anchor="middle" x="127.3968" y="-14.3" font-family="Times,serif" font-size="14.00" fill="#000000">x1 [0]</text>
</g>
<!-- _0x7fffe65d50a0_&#45;&gt;_0x7fffe65d5100_ -->
<g id="edge5" class="edge">
<title>_0x7fffe65d50a0_&#45;&gt;_0x7fffe65d5100_</title>
<path fill="none" stroke="#000000" stroke-dasharray="5,2" d="M127.3968,-71.8314C127.3968,-64.131 127.3968,-54.9743 127.3968,-46.4166"/>
<polygon fill="#000000" stroke="#000000" points="130.8969,-46.4132 127.3968,-36.4133 123.8969,-46.4133 130.8969,-46.4132"/>
</g>
<!-- _0x7fffe65d5160_ -->
<g id="node5" class="node">
<title>_0x7fffe65d5160_</title>
<ellipse fill="none" stroke="#000000" cx="40.3968" cy="-18" rx="32.4942" ry="18"/>
<text text-anchor="middle" x="40.3968" y="-14.3" font-family="Times,serif" font-size="14.00" fill="#000000">x0 [1]</text>
</g>
<!-- _0x7fffe65d50a0_&#45;&gt;_0x7fffe65d5160_ -->
<g id="edge6" class="edge">
<title>_0x7fffe65d50a0_&#45;&gt;_0x7fffe65d5160_</title>
<path fill="none" stroke="#000000" d="M108.5191,-74.3771C96.2688,-64.239 80.1341,-50.886 66.6422,-39.7203"/>
<polygon fill="#000000" stroke="#000000" points="68.5769,-36.7784 58.6414,-33.099 64.1139,-42.1711 68.5769,-36.7784"/>
</g>
<!-- _0x7fffe65d51c0_&#45;&gt;_0x7fffe65d5100_ -->
<g id="edge8" class="edge">
<title>_0x7fffe65d51c0_&#45;&gt;_0x7fffe65d5100_</title>
<path fill="none" stroke="#000000" d="M55.6955,-74.7307C68.7794,-64.3786 86.248,-50.5573 100.6671,-39.1488"/>
<polygon fill="#000000" stroke="#000000" points="103.0777,-41.7045 108.7482,-32.7549 98.7343,-36.215 103.0777,-41.7045"/>
</g>
<!-- _0x7fffe65d51c0_&#45;&gt;_0x7fffe65d5160_ -->
<g id="edge7" class="edge">
<title>_0x7fffe65d51c0_&#45;&gt;_0x7fffe65d5160_</title>
<path fill="none" stroke="#000000" stroke-dasharray="5,2" d="M37.4061,-71.8314C37.8339,-64.131 38.3426,-54.9743 38.8181,-46.4166"/>
<polygon fill="#000000" stroke="#000000" points="42.3136,-46.592 39.3738,-36.4133 35.3244,-46.2037 42.3136,-46.592"/>
</g>
<!-- _0x7fffe65d52e0_&#45;&gt;_0x7fffe65d50a0_ -->
<g id="edge9" class="edge">
<title>_0x7fffe65d52e0_&#45;&gt;_0x7fffe65d50a0_</title>
<path fill="none" stroke="#000000" stroke-dasharray="5,2" d="M158.2619,-144.2022C153.46,-135.7695 147.6283,-125.5285 142.3326,-116.2288"/>
<polygon fill="#000000" stroke="#000000" points="145.2634,-114.3025 137.2735,-107.3446 139.1805,-117.7664 145.2634,-114.3025"/>
</g>
<!-- _0x7fffe65d52e0_&#45;&gt;_0x7fffe65d5100_ -->
<g id="edge10" class="edge">
<title>_0x7fffe65d52e0_&#45;&gt;_0x7fffe65d5100_</title>
<path fill="none" stroke="#000000" d="M173.1819,-143.7985C177.1769,-125.1699 180.969,-95.6771 172.3968,-72 168.2197,-60.4626 160.382,-49.658 152.4036,-40.7903"/>
<polygon fill="#000000" stroke="#000000" points="154.8898,-38.3261 145.4445,-33.5264 149.8351,-43.1687 154.8898,-38.3261"/>
</g>
</g>
</svg>
