<?xml version="1.0" encoding="UTF-8" standalone="no"?>
<!DOCTYPE svg PUBLIC "-//W3C//DTD SVG 1.1//EN"
 "http://www.w3.org/Graphics/SVG/1.1/DTD/svg11.dtd">
<!-- Generated by graphviz version 2.49.1 (20210923.0004)
 -->
<!-- Pages: 1 -->
<svg width="461pt" height="260pt"
 viewBox="0.00 0.00 460.90 260.00" xmlns="http://www.w3.org/2000/svg" xmlns:xlink="http://www.w3.org/1999/xlink">
<g id="graph0" class="graph" transform="scale(1 1) rotate(0) translate(4 256)">
<polygon fill="white" stroke="transparent" points="-4,4 -4,-256 456.9,-256 456.9,4 -4,4"/>
<!-- _0x7fc991405a20_ -->
<g id="node1" class="node">
<title>_0x7fc991405a20_</title>
<ellipse fill="none" stroke="black" cx="236.95" cy="-234" rx="64.19" ry="18"/>
<text text-anchor="middle" x="236.95" y="-230.3" font-family="Times,serif" font-size="14.00">x3 [01100100]</text>
</g>
<!-- _0x7fc991405a50_ -->
<g id="node2" class="node">
<title>_0x7fc991405a50_</title>
<ellipse fill="none" stroke="black" cx="181.95" cy="-162" rx="46.29" ry="18"/>
<text text-anchor="middle" x="181.95" y="-158.3" font-family="Times,serif" font-size="14.00">x2 [0110]</text>
</g>
<!-- _0x7fc991405a20_&#45;&gt;_0x7fc991405a50_ -->
<g id="edge1" class="edge">
<title>_0x7fc991405a20_&#45;&gt;_0x7fc991405a50_</title>
<path fill="none" stroke="black" stroke-dasharray="5,2" d="M223.63,-216.05C216.85,-207.42 208.47,-196.76 201.02,-187.27"/>
<polygon fill="black" stroke="black" points="203.69,-185.01 194.76,-179.31 198.19,-189.33 203.69,-185.01"/>
</g>
<!-- _0x7fc991405ba0_ -->
<g id="node9" class="node">
<title>_0x7fc991405ba0_</title>
<ellipse fill="none" stroke="black" cx="291.95" cy="-162" rx="46.29" ry="18"/>
<text text-anchor="middle" x="291.95" y="-158.3" font-family="Times,serif" font-size="14.00">x2 [0100]</text>
</g>
<!-- _0x7fc991405a20_&#45;&gt;_0x7fc991405ba0_ -->
<g id="edge2" class="edge">
<title>_0x7fc991405a20_&#45;&gt;_0x7fc991405ba0_</title>
<path fill="none" stroke="black" d="M250.26,-216.05C257.05,-207.42 265.42,-196.76 272.88,-187.27"/>
<polygon fill="black" stroke="black" points="275.71,-189.33 279.13,-179.31 270.2,-185.01 275.71,-189.33"/>
</g>
<!-- _0x7fc991405a80_ -->
<g id="node3" class="node">
<title>_0x7fc991405a80_</title>
<ellipse fill="none" stroke="black" cx="96.95" cy="-90" rx="37.09" ry="18"/>
<text text-anchor="middle" x="96.95" y="-86.3" font-family="Times,serif" font-size="14.00">x1 [01]</text>
</g>
<!-- _0x7fc991405a50_&#45;&gt;_0x7fc991405a80_ -->
<g id="edge3" class="edge">
<title>_0x7fc991405a50_&#45;&gt;_0x7fc991405a80_</title>
<path fill="none" stroke="black" stroke-dasharray="5,2" d="M163.08,-145.46C151.18,-135.66 135.64,-122.86 122.61,-112.14"/>
<polygon fill="black" stroke="black" points="124.83,-109.43 114.89,-105.77 120.38,-114.83 124.83,-109.43"/>
</g>
<!-- _0x7fc991405b10_ -->
<g id="node6" class="node">
<title>_0x7fc991405b10_</title>
<ellipse fill="none" stroke="black" cx="188.95" cy="-90" rx="37.09" ry="18"/>
<text text-anchor="middle" x="188.95" y="-86.3" font-family="Times,serif" font-size="14.00">x1 [10]</text>
</g>
<!-- _0x7fc991405a50_&#45;&gt;_0x7fc991405b10_ -->
<g id="edge4" class="edge">
<title>_0x7fc991405a50_&#45;&gt;_0x7fc991405b10_</title>
<path fill="none" stroke="black" d="M183.68,-143.7C184.45,-135.98 185.38,-126.71 186.24,-118.11"/>
<polygon fill="black" stroke="black" points="189.72,-118.4 187.24,-108.1 182.76,-117.71 189.72,-118.4"/>
</g>
<!-- _0x7fc991405ab0_ -->
<g id="node4" class="node">
<title>_0x7fc991405ab0_</title>
<ellipse fill="none" stroke="black" cx="27.95" cy="-18" rx="27.9" ry="18"/>
<text text-anchor="middle" x="27.95" y="-14.3" font-family="Times,serif" font-size="14.00">x0 []</text>
</g>
<!-- _0x7fc991405a80_&#45;&gt;_0x7fc991405ab0_ -->
<g id="edge5" class="edge">
<title>_0x7fc991405a80_&#45;&gt;_0x7fc991405ab0_</title>
<path fill="none" stroke="black" stroke-dasharray="5,2" d="M81.63,-73.46C72.18,-63.87 59.9,-51.42 49.47,-40.84"/>
<polygon fill="black" stroke="black" points="51.79,-38.2 42.28,-33.54 46.8,-43.11 51.79,-38.2"/>
</g>
<!-- _0x7fc991405ae0_ -->
<g id="node5" class="node">
<title>_0x7fc991405ae0_</title>
<ellipse fill="none" stroke="black" cx="101.95" cy="-18" rx="27.9" ry="18"/>
<text text-anchor="middle" x="101.95" y="-14.3" font-family="Times,serif" font-size="14.00">x0 []</text>
</g>
<!-- _0x7fc991405a80_&#45;&gt;_0x7fc991405ae0_ -->
<g id="edge6" class="edge">
<title>_0x7fc991405a80_&#45;&gt;_0x7fc991405ae0_</title>
<path fill="none" stroke="black" d="M98.18,-71.7C98.73,-63.98 99.4,-54.71 100.01,-46.11"/>
<polygon fill="black" stroke="black" points="103.5,-46.33 100.73,-36.1 96.52,-45.83 103.5,-46.33"/>
</g>
<!-- _0x7fc991405b40_ -->
<g id="node7" class="node">
<title>_0x7fc991405b40_</title>
<ellipse fill="none" stroke="black" cx="184.95" cy="-18" rx="27.9" ry="18"/>
<text text-anchor="middle" x="184.95" y="-14.3" font-family="Times,serif" font-size="14.00">x0 []</text>
</g>
<!-- _0x7fc991405b10_&#45;&gt;_0x7fc991405b40_ -->
<g id="edge7" class="edge">
<title>_0x7fc991405b10_&#45;&gt;_0x7fc991405b40_</title>
<path fill="none" stroke="black" stroke-dasharray="5,2" d="M187.96,-71.7C187.52,-63.98 186.99,-54.71 186.5,-46.11"/>
<polygon fill="black" stroke="black" points="189.99,-45.89 185.92,-36.1 183,-46.29 189.99,-45.89"/>
</g>
<!-- _0x7fc991405b70_ -->
<g id="node8" class="node">
<title>_0x7fc991405b70_</title>
<ellipse fill="none" stroke="black" cx="258.95" cy="-18" rx="27.9" ry="18"/>
<text text-anchor="middle" x="258.95" y="-14.3" font-family="Times,serif" font-size="14.00">x0 []</text>
</g>
<!-- _0x7fc991405b10_&#45;&gt;_0x7fc991405b70_ -->
<g id="edge8" class="edge">
<title>_0x7fc991405b10_&#45;&gt;_0x7fc991405b70_</title>
<path fill="none" stroke="black" d="M204.48,-73.46C214.08,-63.87 226.53,-51.42 237.11,-40.84"/>
<polygon fill="black" stroke="black" points="239.82,-43.08 244.41,-33.54 234.87,-38.13 239.82,-43.08"/>
</g>
<!-- _0x7fc991405bd0_ -->
<g id="node10" class="node">
<title>_0x7fc991405bd0_</title>
<ellipse fill="none" stroke="black" cx="284.95" cy="-90" rx="27.9" ry="18"/>
<text text-anchor="middle" x="284.95" y="-86.3" font-family="Times,serif" font-size="14.00">x1 []</text>
</g>
<!-- _0x7fc991405ba0_&#45;&gt;_0x7fc991405bd0_ -->
<g id="edge9" class="edge">
<title>_0x7fc991405ba0_&#45;&gt;_0x7fc991405bd0_</title>
<path fill="none" stroke="black" stroke-dasharray="5,2" d="M290.22,-143.7C289.45,-135.98 288.52,-126.71 287.66,-118.11"/>
<polygon fill="black" stroke="black" points="291.14,-117.71 286.66,-108.1 284.17,-118.4 291.14,-117.71"/>
</g>
<!-- _0x7fc991405c60_ -->
<g id="node11" class="node">
<title>_0x7fc991405c60_</title>
<ellipse fill="none" stroke="black" cx="367.95" cy="-90" rx="37.09" ry="18"/>
<text text-anchor="middle" x="367.95" y="-86.3" font-family="Times,serif" font-size="14.00">x1 [00]</text>
</g>
<!-- _0x7fc991405ba0_&#45;&gt;_0x7fc991405c60_ -->
<g id="edge10" class="edge">
<title>_0x7fc991405ba0_&#45;&gt;_0x7fc991405c60_</title>
<path fill="none" stroke="black" d="M309.19,-145.12C319.44,-135.68 332.59,-123.56 343.86,-113.19"/>
<polygon fill="black" stroke="black" points="346.31,-115.69 351.29,-106.34 341.57,-110.54 346.31,-115.69"/>
</g>
<!-- _0x7fc991405c90_ -->
<g id="node12" class="node">
<title>_0x7fc991405c90_</title>
<ellipse fill="none" stroke="black" cx="350.95" cy="-18" rx="27.9" ry="18"/>
<text text-anchor="middle" x="350.95" y="-14.3" font-family="Times,serif" font-size="14.00">x0 []</text>
</g>
<!-- _0x7fc991405c60_&#45;&gt;_0x7fc991405c90_ -->
<g id="edge11" class="edge">
<title>_0x7fc991405c60_&#45;&gt;_0x7fc991405c90_</title>
<path fill="none" stroke="black" stroke-dasharray="5,2" d="M363.83,-72.05C361.94,-64.26 359.65,-54.82 357.52,-46.08"/>
<polygon fill="black" stroke="black" points="360.9,-45.17 355.14,-36.28 354.1,-46.82 360.9,-45.17"/>
</g>
<!-- _0x7fc991405cc0_ -->
<g id="node13" class="node">
<title>_0x7fc991405cc0_</title>
<ellipse fill="none" stroke="black" cx="424.95" cy="-18" rx="27.9" ry="18"/>
<text text-anchor="middle" x="424.95" y="-14.3" font-family="Times,serif" font-size="14.00">x0 []</text>
</g>
<!-- _0x7fc991405c60_&#45;&gt;_0x7fc991405cc0_ -->
<g id="edge12" class="edge">
<title>_0x7fc991405c60_&#45;&gt;_0x7fc991405cc0_</title>
<path fill="none" stroke="black" d="M380.88,-73.12C388.27,-64.04 397.68,-52.49 405.9,-42.39"/>
<polygon fill="black" stroke="black" points="408.86,-44.3 412.46,-34.34 403.43,-39.88 408.86,-44.3"/>
</g>
</g>
</svg>
