<?xml version="1.0" encoding="UTF-8" standalone="no"?>
<!DOCTYPE svg PUBLIC "-//W3C//DTD SVG 1.1//EN"
 "http://www.w3.org/Graphics/SVG/1.1/DTD/svg11.dtd">
<!-- Generated by graphviz version 2.49.1 (20210923.0004)
 -->
<!-- Pages: 1 -->
<svg width="358pt" height="260pt"
 viewBox="0.00 0.00 358.09 260.00" xmlns="http://www.w3.org/2000/svg" xmlns:xlink="http://www.w3.org/1999/xlink">
<g id="graph0" class="graph" transform="scale(1 1) rotate(0) translate(4 256)">
<polygon fill="white" stroke="transparent" points="-4,4 -4,-256 354.09,-256 354.09,4 -4,4"/>
<!-- _0x7ff38fc05a20_ -->
<g id="node1" class="node">
<title>_0x7ff38fc05a20_</title>
<ellipse fill="none" stroke="black" cx="221.05" cy="-234" rx="64.19" ry="18"/>
<text text-anchor="middle" x="221.05" y="-230.3" font-family="Times,serif" font-size="14.00">x3 [10010011]</text>
</g>
<!-- _0x7ff38fc05a50_ -->
<g id="node2" class="node">
<title>_0x7ff38fc05a50_</title>
<ellipse fill="none" stroke="black" cx="166.05" cy="-162" rx="46.29" ry="18"/>
<text text-anchor="middle" x="166.05" y="-158.3" font-family="Times,serif" font-size="14.00">x2 [1001]</text>
</g>
<!-- _0x7ff38fc05a20_&#45;&gt;_0x7ff38fc05a50_ -->
<g id="edge1" class="edge">
<title>_0x7ff38fc05a20_&#45;&gt;_0x7ff38fc05a50_</title>
<path fill="none" stroke="black" stroke-dasharray="5,2" d="M207.73,-216.05C200.95,-207.42 192.57,-196.76 185.11,-187.27"/>
<polygon fill="black" stroke="black" points="187.79,-185.01 178.86,-179.31 182.29,-189.33 187.79,-185.01"/>
</g>
<!-- _0x7ff38fc05ba0_ -->
<g id="node7" class="node">
<title>_0x7ff38fc05ba0_</title>
<ellipse fill="none" stroke="black" cx="276.05" cy="-162" rx="46.29" ry="18"/>
<text text-anchor="middle" x="276.05" y="-158.3" font-family="Times,serif" font-size="14.00">x2 [0011]</text>
</g>
<!-- _0x7ff38fc05a20_&#45;&gt;_0x7ff38fc05ba0_ -->
<g id="edge2" class="edge">
<title>_0x7ff38fc05a20_&#45;&gt;_0x7ff38fc05ba0_</title>
<path fill="none" stroke="black" d="M234.36,-216.05C241.15,-207.42 249.52,-196.76 256.98,-187.27"/>
<polygon fill="black" stroke="black" points="259.81,-189.33 263.23,-179.31 254.3,-185.01 259.81,-189.33"/>
</g>
<!-- _0x7ff38fc05a80_ -->
<g id="node3" class="node">
<title>_0x7ff38fc05a80_</title>
<ellipse fill="none" stroke="black" cx="221.05" cy="-90" rx="37.09" ry="18"/>
<text text-anchor="middle" x="221.05" y="-86.3" font-family="Times,serif" font-size="14.00">x1 [10]</text>
</g>
<!-- _0x7ff38fc05a50_&#45;&gt;_0x7ff38fc05a80_ -->
<g id="edge3" class="edge">
<title>_0x7ff38fc05a50_&#45;&gt;_0x7ff38fc05a80_</title>
<path fill="none" stroke="black" stroke-dasharray="5,2" d="M179.08,-144.41C185.96,-135.66 194.53,-124.75 202.13,-115.08"/>
<polygon fill="black" stroke="black" points="205.06,-117.01 208.48,-106.99 199.55,-112.69 205.06,-117.01"/>
</g>
<!-- _0x7ff38fc05b10_ -->
<g id="node6" class="node">
<title>_0x7ff38fc05b10_</title>
<ellipse fill="none" stroke="black" cx="129.05" cy="-90" rx="37.09" ry="18"/>
<text text-anchor="middle" x="129.05" y="-86.3" font-family="Times,serif" font-size="14.00">x1 [01]</text>
</g>
<!-- _0x7ff38fc05a50_&#45;&gt;_0x7ff38fc05b10_ -->
<g id="edge4" class="edge">
<title>_0x7ff38fc05a50_&#45;&gt;_0x7ff38fc05b10_</title>
<path fill="none" stroke="black" d="M157.09,-144.05C152.77,-135.89 147.5,-125.91 142.7,-116.82"/>
<polygon fill="black" stroke="black" points="145.69,-114.99 137.92,-107.79 139.5,-118.27 145.69,-114.99"/>
</g>
<!-- _0x7ff38fc05ab0_ -->
<g id="node4" class="node">
<title>_0x7ff38fc05ab0_</title>
<ellipse fill="none" stroke="black" cx="83.05" cy="-18" rx="32.49" ry="18"/>
<text text-anchor="middle" x="83.05" y="-14.3" font-family="Times,serif" font-size="14.00">x0 [1]</text>
</g>
<!-- _0x7ff38fc05a80_&#45;&gt;_0x7ff38fc05ab0_ -->
<g id="edge5" class="edge">
<title>_0x7ff38fc05a80_&#45;&gt;_0x7ff38fc05ab0_</title>
<path fill="none" stroke="black" stroke-dasharray="5,2" d="M196.38,-76.49C173.69,-64.98 139.92,-47.85 115.14,-35.28"/>
<polygon fill="black" stroke="black" points="116.63,-32.11 106.13,-30.71 113.46,-38.35 116.63,-32.11"/>
</g>
<!-- _0x7ff38fc05ae0_ -->
<g id="node5" class="node">
<title>_0x7ff38fc05ae0_</title>
<ellipse fill="none" stroke="black" cx="267.05" cy="-18" rx="32.49" ry="18"/>
<text text-anchor="middle" x="267.05" y="-14.3" font-family="Times,serif" font-size="14.00">x0 [0]</text>
</g>
<!-- _0x7ff38fc05a80_&#45;&gt;_0x7ff38fc05ae0_ -->
<g id="edge6" class="edge">
<title>_0x7ff38fc05a80_&#45;&gt;_0x7ff38fc05ae0_</title>
<path fill="none" stroke="black" d="M231.95,-72.41C237.5,-63.95 244.38,-53.49 250.57,-44.08"/>
<polygon fill="black" stroke="black" points="253.66,-45.75 256.22,-35.47 247.81,-41.9 253.66,-45.75"/>
</g>
<!-- _0x7ff38fc05b10_&#45;&gt;_0x7ff38fc05ab0_ -->
<g id="edge8" class="edge">
<title>_0x7ff38fc05b10_&#45;&gt;_0x7ff38fc05ab0_</title>
<path fill="none" stroke="black" d="M118.15,-72.41C112.59,-63.95 105.71,-53.49 99.53,-44.08"/>
<polygon fill="black" stroke="black" points="102.29,-41.9 93.87,-35.47 96.44,-45.75 102.29,-41.9"/>
</g>
<!-- _0x7ff38fc05b10_&#45;&gt;_0x7ff38fc05ae0_ -->
<g id="edge7" class="edge">
<title>_0x7ff38fc05b10_&#45;&gt;_0x7ff38fc05ae0_</title>
<path fill="none" stroke="black" stroke-dasharray="5,2" d="M153.72,-76.49C176.4,-64.98 210.18,-47.85 234.95,-35.28"/>
<polygon fill="black" stroke="black" points="236.63,-38.35 243.97,-30.71 233.46,-32.11 236.63,-38.35"/>
</g>
<!-- _0x7ff38fc05bd0_ -->
<g id="node8" class="node">
<title>_0x7ff38fc05bd0_</title>
<ellipse fill="none" stroke="black" cx="313.05" cy="-90" rx="37.09" ry="18"/>
<text text-anchor="middle" x="313.05" y="-86.3" font-family="Times,serif" font-size="14.00">x1 [00]</text>
</g>
<!-- _0x7ff38fc05ba0_&#45;&gt;_0x7ff38fc05bd0_ -->
<g id="edge9" class="edge">
<title>_0x7ff38fc05ba0_&#45;&gt;_0x7ff38fc05bd0_</title>
<path fill="none" stroke="black" stroke-dasharray="5,2" d="M285,-144.05C289.32,-135.89 294.59,-125.91 299.4,-116.82"/>
<polygon fill="black" stroke="black" points="302.59,-118.27 304.17,-107.79 296.41,-114.99 302.59,-118.27"/>
</g>
<!-- _0x7ff38fc05c60_ -->
<g id="node9" class="node">
<title>_0x7ff38fc05c60_</title>
<ellipse fill="none" stroke="black" cx="37.05" cy="-90" rx="37.09" ry="18"/>
<text text-anchor="middle" x="37.05" y="-86.3" font-family="Times,serif" font-size="14.00">x1 [11]</text>
</g>
<!-- _0x7ff38fc05ba0_&#45;&gt;_0x7ff38fc05c60_ -->
<g id="edge10" class="edge">
<title>_0x7ff38fc05ba0_&#45;&gt;_0x7ff38fc05c60_</title>
<path fill="none" stroke="black" d="M241.5,-150.06C234.73,-147.99 227.68,-145.89 221.05,-144 160.09,-126.64 143.52,-127.01 83.05,-108 80.31,-107.14 77.49,-106.21 74.66,-105.24"/>
<polygon fill="black" stroke="black" points="75.71,-101.9 65.11,-101.87 73.38,-108.5 75.71,-101.9"/>
</g>
<!-- _0x7ff38fc05bd0_&#45;&gt;_0x7ff38fc05ae0_ -->
<g id="edge11" class="edge">
<title>_0x7ff38fc05bd0_&#45;&gt;_0x7ff38fc05ae0_</title>
<path fill="none" stroke="black" stroke-dasharray="5,2" d="M297.12,-73.46C290.58,-65.04 283.32,-54.41 277.45,-44.78"/>
<polygon fill="black" stroke="black" points="280.37,-42.84 272.31,-35.96 274.32,-46.36 280.37,-42.84"/>
</g>
<!-- _0x7ff38fc05bd0_&#45;&gt;_0x7ff38fc05ae0_ -->
<g id="edge12" class="edge">
<title>_0x7ff38fc05bd0_&#45;&gt;_0x7ff38fc05ae0_</title>
<path fill="none" stroke="black" d="M307.79,-72.05C302.82,-63.04 295.62,-51.83 288.57,-42.04"/>
<polygon fill="black" stroke="black" points="291.27,-39.8 282.47,-33.89 285.66,-43.99 291.27,-39.8"/>
</g>
<!-- _0x7ff38fc05c60_&#45;&gt;_0x7ff38fc05ab0_ -->
<g id="edge13" class="edge">
<title>_0x7ff38fc05c60_&#45;&gt;_0x7ff38fc05ab0_</title>
<path fill="none" stroke="black" stroke-dasharray="5,2" d="M42.3,-72.05C47.27,-63.04 54.47,-51.83 61.52,-42.04"/>
<polygon fill="black" stroke="black" points="64.43,-43.99 67.62,-33.89 58.83,-39.8 64.43,-43.99"/>
</g>
<!-- _0x7ff38fc05c60_&#45;&gt;_0x7ff38fc05ab0_ -->
<g id="edge14" class="edge">
<title>_0x7ff38fc05c60_&#45;&gt;_0x7ff38fc05ab0_</title>
<path fill="none" stroke="black" d="M52.98,-73.46C59.51,-65.04 66.77,-54.41 72.64,-44.78"/>
<polygon fill="black" stroke="black" points="75.77,-46.36 77.78,-35.96 69.72,-42.84 75.77,-46.36"/>
</g>
</g>
</svg>
